# This file uses centimeters as units for non-parametric coordinates.

mtllib Monitor_1.mtl
g default
v -1.500000 0.000000 0.295242
v 1.500000 0.000000 0.295242
v -1.500000 3.000000 0.295242
v 1.500000 3.000000 0.295242
v -1.500000 3.000000 -0.309093
v 1.500000 3.000000 -0.309093
v -1.500000 0.000000 -0.309093
v 1.500000 0.000000 -0.309093
v -1.200000 0.300000 0.253304
v 1.200000 0.300000 0.253304
v 1.200000 2.700000 0.253304
v -1.200000 2.700000 0.253304
v -1.135835 0.332743 0.613558
v 1.135835 0.332743 0.613558
v 1.135835 2.604413 0.608420
v -1.135835 2.604413 0.608420
v -1.360000 2.860000 -0.328162
v 1.360000 2.860000 -0.328162
v 1.360000 0.140000 -0.328162
v -1.360000 0.140000 -0.328162
v -1.360000 2.860000 -0.262012
v 1.360000 2.860000 -0.262012
v 1.360000 0.140000 -0.262012
v -1.360000 0.140000 -0.262012
v -1.482551 2.982551 -0.311470
v -1.482551 0.017449 -0.311470
v 1.482551 0.017449 -0.311470
v 1.482551 2.982551 -0.311470
v -1.500000 3.000000 0.278148
v -1.500000 0.000000 0.278148
v 1.500000 0.000000 0.278148
v 1.500000 3.000000 0.278148
v -1.216957 2.716957 0.255675
v 1.216957 2.716957 0.255675
v 1.216957 0.283043 0.255675
v -1.216957 0.283043 0.255675
v -1.138591 2.608519 0.593168
v 1.138591 2.608519 0.593168
v 1.138591 0.331336 0.598085
v -1.138591 0.331336 0.598085
v -1.360000 2.860000 -0.321539
v -1.360000 0.140000 -0.321539
v 1.360000 0.140000 -0.321539
v 1.360000 2.860000 -0.321539
vt 0.375000 0.000000
vt 0.625000 0.000000
vt 0.625000 0.250000
vt 0.375000 0.250000
vt 0.375000 0.250000
vt 0.625000 0.250000
vt 0.625000 0.257071
vt 0.375000 0.257071
vt 0.375000 0.992929
vt 0.625000 0.992929
vt 0.625000 1.000000
vt 0.375000 1.000000
vt 0.625000 0.000000
vt 0.632071 0.000000
vt 0.632071 0.250000
vt 0.367928 0.000000
vt 0.375000 0.000000
vt 0.367928 0.250000
vt 0.625000 0.000000
vt 0.375000 0.000000
vt 0.625000 0.250000
vt 0.375000 0.250000
vt 0.375000 0.000000
vt 0.625000 0.000000
vt 0.625000 0.000000
vt 0.375000 0.000000
vt 0.625000 0.250000
vt 0.625000 0.250000
vt 0.375000 0.250000
vt 0.375000 0.250000
vt 0.375000 0.500000
vt 0.625000 0.500000
vt 0.625000 0.500000
vt 0.375000 0.500000
vt 0.625000 0.750000
vt 0.625000 0.750000
vt 0.375000 0.750000
vt 0.375000 0.750000
vt 0.375000 0.500000
vt 0.625000 0.500000
vt 0.625000 0.500000
vt 0.375000 0.500000
vt 0.625000 0.750000
vt 0.625000 0.750000
vt 0.375000 0.750000
vt 0.375000 0.750000
vt 0.125000 0.000000
vt 0.125000 0.250000
vt 0.875000 0.000000
vt 0.875000 0.250000
vt 0.375000 0.500000
vt 0.375000 0.750000
vt 0.625000 0.750000
vt 0.625000 0.500000
vn -0.007130 -0.005306 0.999961
vn 0.007130 -0.005306 0.999961
vn 0.007867 0.009692 0.999922
vn -0.007867 0.009692 0.999922
vn 0.003619 -0.003619 0.999987
vn -0.003619 -0.003619 0.999987
vn 0.707107 0.707107 0.000000
vn -0.707107 0.707107 0.000000
vn -0.707107 -0.707107 0.000000
vn 0.707107 -0.707107 0.000000
vn -0.003619 0.003619 0.999987
vn 0.003619 0.003619 0.999987
vn -0.069557 0.069557 0.995150
vn 0.069557 0.069557 0.995150
vn -0.069558 -0.069557 0.995150
vn 0.069558 -0.069557 0.995150
vn -0.692396 -0.656262 0.299846
vn 0.692396 -0.656262 0.299846
vn 0.675407 -0.713592 0.186042
vn -0.675407 -0.713592 0.186042
vn 0.625947 0.662938 0.410735
vn 0.691875 0.656389 0.300772
vn -0.625947 0.662938 0.410735
vn -0.691875 0.656389 0.300772
vn -0.706951 0.706951 -0.020964
vn 0.706951 0.706951 -0.020964
vn 0.067791 0.067791 -0.995394
vn -0.067791 0.067791 -0.995394
vn 0.706951 -0.706951 -0.020964
vn 0.067791 -0.067791 -0.995394
vn -0.706951 -0.706951 -0.020964
vn -0.067791 -0.067791 -0.995394
vn -0.050703 0.050703 -0.997426
vn 0.050703 0.050703 -0.997426
vn -0.707107 -0.707107 0.000000
vn 0.707107 -0.707107 0.000000
vn 0.050703 -0.050703 -0.997426
vn -0.707107 0.707107 0.000000
vn -0.050703 -0.050703 -0.997426
vn 0.707107 0.707107 0.000000
vn 0.707107 -0.707107 0.000000
vn 0.707107 0.707107 0.000000
vn -0.707107 0.707107 0.000000
vn -0.707107 -0.707107 0.000000
s 1
g monitor
usemtl initialShadingGroup
f 13/1/1 14/2/2 15/3/3 16/4/4
f 3/5/5 4/6/6 32/7/7 29/8/8
f 30/9/9 31/10/10 2/11/11 1/12/12
f 2/13/11 31/14/10 32/15/7 4/6/6
f 30/16/9 1/17/12 3/5/5 29/18/8
f 1/17/12 2/13/11 35/19/13 36/20/14
f 2/13/11 4/6/6 34/21/15 35/19/13
f 4/6/6 3/5/5 33/22/16 34/21/15
f 3/5/5 1/17/12 36/20/14 33/22/16
f 9/23/17 10/24/18 39/25/19 40/26/20
f 10/24/18 11/27/21 38/28/22 39/25/19
f 11/27/21 12/29/23 37/30/24 38/28/22
f 12/29/23 9/23/17 40/26/20 37/30/24
f 5/31/25 6/32/26 28/33/27 25/34/28
f 6/32/26 8/35/29 27/36/30 28/33/27
f 8/35/29 7/37/31 26/38/32 27/36/30
f 7/37/31 5/31/25 25/34/28 26/38/32
f 17/39/33 18/40/34 44/41/35 41/42/36
f 18/40/34 19/43/37 43/44/38 44/41/35
f 19/43/37 20/45/39 42/46/40 43/44/38
f 20/45/39 17/39/33 41/42/36 42/46/40
f 26/38/32 25/34/28 17/39/33 20/45/39
f 27/36/30 26/38/32 20/45/39 19/43/37
f 28/33/27 27/36/30 19/43/37 18/40/34
f 25/34/28 28/33/27 18/40/34 17/39/33
f 7/47/31 30/16/9 29/18/8 5/48/25
f 7/37/31 8/35/29 31/10/10 30/9/9
f 32/15/7 31/14/10 8/49/29 6/50/26
f 29/8/8 32/7/7 6/32/26 5/31/25
f 34/21/15 33/22/16 12/29/23 11/27/21
f 35/19/13 34/21/15 11/27/21 10/24/18
f 36/20/14 35/19/13 10/24/18 9/23/17
f 33/22/16 36/20/14 9/23/17 12/29/23
f 38/28/22 37/30/24 16/4/4 15/3/3
f 39/25/19 38/28/22 15/3/3 14/2/2
f 40/26/20 39/25/19 14/2/2 13/1/1
f 37/30/24 40/26/20 13/1/1 16/4/4
f 42/46/40 41/42/36 21/51/41 24/52/42
f 43/44/38 42/46/40 24/52/42 23/53/43
f 44/41/35 43/44/38 23/53/43 22/54/44
f 41/42/36 44/41/35 22/54/44 21/51/41
